<svg viewBox="0 0 128 128" fill="none" xmlns="http://www.w3.org/2000/svg" width="24" height="24"><circle cx="64" cy="64" r="64" fill="white"></circle><path fill-rule="evenodd" clip-rule="evenodd" d="M60.9377 25.1983C55.3571 25.6872 51.3659 26.7757 46.6187 29.1035C44.416 30.1835 40.8479 32.4423 39.7172 33.4724C39.5753 33.6017 39.1399 33.9665 38.7497 34.2828C37.6467 35.1768 35.5982 37.207 34.5791 38.416C34.0705 39.0191 33.6229 39.5415 33.5842 39.577C33.3765 39.7666 31.4451 42.4437 31.1174 42.9955C30.9068 43.3503 30.5366 43.9598 30.2941 44.35C30.0519 44.7402 29.4707 45.8432 29.0031 46.801C28.1852 48.4757 28.0475 48.775 27.8021 49.4133C27.7405 49.5729 27.625 49.8486 27.5457 50.026C25.3782 54.8638 24.3971 63.6794 25.3853 69.4405C25.4217 69.6534 25.5185 70.2339 25.6004 70.7305C26.5824 76.6939 30.2705 84.8179 33.6235 88.4035C33.8228 88.6164 34.1721 89.0346 34.4004 89.3326C34.9252 90.0186 37.9199 92.9814 38.9432 93.827C39.3689 94.1788 39.7462 94.4984 39.7817 94.5371C39.8172 94.5762 40.0494 94.7474 40.2977 94.918C40.546 95.0886 40.7782 95.2599 40.8137 95.2989C41.4377 95.9829 46.0766 98.6458 48.3279 99.6123C48.594 99.7265 49.0003 99.9006 49.2309 99.9993C49.9298 100.299 50.7573 100.6 51.7767 100.927C52.3098 101.099 52.9203 101.295 53.1332 101.363C54.8486 101.915 58.0639 102.485 61.1212 102.78C63.8628 103.045 78.8419 102.953 79.4492 102.668C79.803 102.502 83.5356 98.8515 91.3169 91.0612L102.669 79.696H82.8561C59.331 79.696 60.6187 79.7815 56.9387 77.9784C56.4775 77.7523 56.0808 77.524 56.0573 77.4708C56.0334 77.4175 55.9583 77.374 55.8902 77.374C55.3126 77.374 52.2234 74.6544 51.3562 73.3827C51.1356 73.0593 50.9083 72.7752 50.8508 72.7516C50.7934 72.7277 50.7467 72.6513 50.7467 72.5813C50.7467 72.5113 50.5725 72.2008 50.3597 71.8915C50.1468 71.5822 49.9727 71.2984 49.9727 71.2613C49.9727 71.2239 49.8034 70.8282 49.5963 70.3816C48.4921 67.9983 48.0399 65.2545 48.2983 62.5068C48.494 60.4266 48.9684 58.708 49.7937 57.0894C50.0562 56.5747 50.3342 56.0232 50.4119 55.8642C50.4896 55.7052 50.5967 55.5746 50.6499 55.574C50.7031 55.5733 50.7467 55.4859 50.7467 55.3795C50.7467 55.2731 50.7912 55.186 50.8454 55.186C50.8995 55.186 51.0827 54.9609 51.2527 54.6861C52.1492 53.2355 55.0269 50.8461 57.0677 49.8573C60.1882 48.3458 60.4036 48.32 70.6898 48.2313C78.2276 48.1661 79.5085 48.1281 79.714 47.962C79.8459 47.8556 81.5525 46.1721 83.5069 44.221L87.0602 40.6735L74.9987 40.6316C61.0818 40.5835 61.0506 40.5855 57.0677 41.6855C55.6497 42.0773 53.0922 43.229 51.949 43.9907C51.6523 44.1884 51.3743 44.35 51.3307 44.35C51.2875 44.35 51.1272 44.4661 50.975 44.608C50.8228 44.7499 50.6219 44.866 50.529 44.866C50.4358 44.866 50.3597 44.9115 50.3597 44.9673C50.3597 45.0227 50.1878 45.1701 49.9775 45.2943C49.7672 45.4184 49.5205 45.5907 49.4293 45.6774C49.338 45.7638 48.7769 46.2698 48.1828 46.8016C47.3021 47.5898 45.8182 49.2307 45.0271 50.2917C44.5295 50.959 44.2967 51.3199 44.2967 51.424C44.2967 51.4892 44.2109 51.6137 44.1058 51.7007C43.6697 52.0629 41.9595 55.7804 41.5828 57.1855C40.071 62.826 40.2512 67.2401 42.2046 72.4075C42.5974 73.4463 43.8768 76.0485 44.0464 76.1533C44.1093 76.192 44.2522 76.4168 44.3641 76.6526C44.476 76.8883 44.6679 77.1905 44.7904 77.3243C44.913 77.4582 45.1555 77.7707 45.3293 78.019C46.1852 79.2422 48.6472 81.7032 49.8437 82.5314C50.092 82.7033 50.3242 82.8797 50.3597 82.9233C51.0363 83.7543 55.233 85.7564 57.6511 86.4017C60.8509 87.2554 61.7052 87.3044 73.4107 87.3057C80.9901 87.3067 83.909 87.347 83.9735 87.4512C84.0896 87.6392 77.0304 94.7155 76.3906 95.0528C75.8407 95.3424 65.2431 95.4356 62.2345 95.177C60.0356 94.988 58.3525 94.7916 57.8417 94.6648C57.5934 94.6029 56.8097 94.4217 56.1002 94.2614C55.3907 94.1014 54.755 93.9224 54.6876 93.8637C54.6202 93.8051 54.4351 93.757 54.2761 93.757C54.1171 93.757 53.951 93.699 53.9072 93.628C53.8633 93.5571 53.7121 93.499 53.5708 93.499C53.4296 93.499 53.0738 93.3829 52.7804 93.241C52.4866 93.0991 52.1986 92.983 52.1402 92.983C52.0164 92.983 51.1605 92.6086 49.9727 92.0352C48.4363 91.2934 45.2903 89.2888 44.4782 88.5344C44.4008 88.4625 44.1399 88.2584 43.8984 88.081C43.4437 87.7472 40.6112 84.9569 40.0352 84.2752C38.1763 82.0757 36.3635 79.1816 35.2683 76.6645C35.0525 76.1679 34.8184 75.6606 34.7487 75.5374C34.6788 75.4142 34.6217 75.2249 34.6217 75.1165C34.6217 75.0081 34.5704 74.8188 34.5078 74.6956C34.3272 74.3406 34.1328 73.8488 34.0625 73.5685C34.0267 73.4266 33.8744 72.9042 33.7238 72.4075C32.2565 67.5623 32.2058 61.4144 33.5897 56.089C33.6542 55.8407 33.7464 55.4634 33.7948 55.2505C33.8428 55.0377 33.9222 54.8055 33.9709 54.7345C34.0193 54.6636 34.1344 54.3443 34.2263 54.025C34.3179 53.7057 34.4524 53.2994 34.5246 53.122C34.5968 52.9446 34.7133 52.6544 34.7829 52.477C34.8526 52.2996 34.961 52.0536 35.0238 51.9304C35.0864 51.8072 35.1377 51.6185 35.1377 51.5111C35.1377 51.4037 35.1957 51.316 35.2667 51.316C35.3376 51.316 35.3957 51.2035 35.3957 51.0657C35.3957 50.928 35.4537 50.7794 35.5247 50.7355C35.5956 50.6916 35.6537 50.5749 35.6537 50.4762C35.6537 49.8228 38.6645 45.2669 40.4267 43.2535C43.4221 39.8308 48.0016 36.5471 51.8432 35.0668C52.2989 34.8914 52.8687 34.6482 53.0993 34.5308C53.2225 34.4683 53.4286 34.417 53.5573 34.417C53.6859 34.417 53.8462 34.3689 53.9136 34.3106C54.211 34.0519 57.1567 33.3141 59.1317 33.0032C61.406 32.6455 63.1136 32.611 78.5452 32.611C91.8932 32.611 94.687 32.581 95.0398 32.4336C95.2849 32.3311 97.0051 30.7208 99.1056 28.6281L102.747 25L82.7774 25.0174C67.8263 25.0303 62.3383 25.0758 60.9377 25.1983Z" fill="#0C0C0C"></path></svg>