<svg viewBox="0 0 20 20" fill="#6B40E0" xmlns="http://www.w3.org/2000/svg" width="36" height="36"><g clip-path="url(#clip0_3637_24311)"><path d="M9.98814 20C15.516 20 19.9763 15.5241 19.9763 10.0118C20 4.47585 15.516 0 9.98814 0C4.48398 0 0 4.47585 0 9.98822C0 15.5241 4.48398 20 9.98814 20Z" fill="#6B40E0"></path><path d="M15.7077 6.62528C15.761 6.62113 15.8144 6.61762 15.8679 6.61475C15.8393 6.66186 15.8102 6.70862 15.7806 6.75501C15.1743 7.70585 14.3569 8.50349 13.4019 9.07365C12.4778 9.62529 11.4416 9.95617 10.3886 10.0381C10.3352 10.0423 10.2818 10.0458 10.2284 10.0487C10.257 10.0015 10.286 9.95478 10.3156 9.90839C10.9219 8.95755 11.7394 8.15991 12.6943 7.58975C13.6184 7.03811 14.6546 6.70723 15.7077 6.62528Z" fill="white"></path><path d="M10.0671 9.90846C10.0416 9.95573 10.0157 10.0028 9.9893 10.0496C9.96472 10.0035 9.9406 9.95712 9.91694 9.9105C9.41761 8.92654 9.12582 7.82652 9.13907 6.70242C9.15292 5.52673 9.46753 4.32163 10.0402 3.27361C10.0656 3.2271 10.0915 3.18089 10.118 3.13501C10.1429 3.18004 10.1673 3.22537 10.1912 3.27099C10.7064 4.25332 10.9889 5.36898 10.9899 6.49984C10.991 7.68234 10.637 8.85281 10.0671 9.90846Z" fill="white"></path><path d="M9.69125 9.92065C9.11821 8.98566 8.303 8.19632 7.3821 7.66346C6.46243 7.1313 5.42396 6.83199 4.36196 6.79047C4.30903 6.7884 4.25605 6.78697 4.20301 6.78618C4.22962 6.83215 4.25681 6.87778 4.28457 6.92308C4.85764 7.85808 5.67303 8.64752 6.59373 9.18027C7.5132 9.71231 8.55185 10.0117 9.61387 10.0533C9.6668 10.0553 9.71978 10.0568 9.77282 10.0575C9.74621 10.0116 9.71902 9.96594 9.69125 9.92065Z" fill="white"></path><path d="M9.71064 10.265C8.62702 10.3363 7.55147 10.6363 6.6041 11.2071C5.64184 11.787 4.82085 12.5986 4.2164 13.5645C4.18782 13.6101 4.15973 13.6561 4.13213 13.7025C4.18444 13.7009 4.23674 13.6987 4.28901 13.6959C5.35028 13.6388 6.39965 13.3292 7.34103 12.7929C8.33618 12.226 9.15578 11.374 9.7828 10.3955C9.81241 10.3493 9.84158 10.3029 9.87032 10.2561C9.81708 10.2585 9.76385 10.2615 9.71064 10.265Z" fill="white"></path><path d="M9.91213 10.6159C9.93702 10.5653 9.96252 10.515 9.98865 10.4648C10.0129 10.5142 10.0364 10.5639 10.0594 10.6138C10.943 12.5328 10.9044 14.7727 9.9491 16.7139C9.92422 16.7645 9.89872 16.8148 9.8726 16.865C9.84839 16.8156 9.8248 16.7659 9.80183 16.716C8.91803 14.7968 8.95692 12.5566 9.91213 10.6159Z" fill="white"></path><path d="M10.1092 10.2522C10.1358 10.2975 10.1628 10.3425 10.1903 10.3873C10.7544 11.3065 11.4984 12.1023 12.4505 12.6532C13.4036 13.2047 14.5196 13.4722 15.6243 13.4927C15.6769 13.4937 15.7295 13.4941 15.7821 13.4939C15.7553 13.4486 15.7282 13.4035 15.7006 13.3586C15.1369 12.4428 14.3932 11.6373 13.4381 11.0846C12.4815 10.5311 11.3749 10.2711 10.2666 10.2531C10.2141 10.2523 10.1616 10.2519 10.1092 10.2522Z" fill="white"></path><path fill-rule="evenodd" clip-rule="evenodd" d="M15.778 13.6289C15.8261 13.6288 15.8713 13.6019 15.8958 13.5587C15.9203 13.5156 15.9203 13.463 15.8958 13.4215C15.3143 12.4351 14.5307 11.5595 13.5061 10.9666C12.6591 10.4765 11.6992 10.2126 10.7255 10.1388C11.6841 10.0173 12.6208 9.694 13.4657 9.18965C14.4869 8.57994 15.3536 7.71529 15.9795 6.68305C16.0055 6.6402 16.0069 6.58702 15.983 6.54458C15.9591 6.50215 15.9139 6.47731 15.8653 6.47993C14.736 6.54059 13.6203 6.88294 12.6305 7.47375C11.7498 7.99964 10.9839 8.71518 10.3883 9.56434C10.8456 8.60082 11.123 7.5544 11.122 6.49519C11.121 5.28815 10.8056 4.09925 10.2335 3.06561C10.2106 3.02423 10.1674 2.99922 10.1202 3.00002C10.073 3.00081 10.029 3.02728 10.0047 3.06945C9.37059 4.17015 9.0217 5.45376 9.00695 6.70531C8.9955 7.6771 9.20705 8.62906 9.57973 9.50483C9.01568 8.7009 8.27461 8.02253 7.45009 7.54543C6.46596 6.97598 5.34836 6.66807 4.20935 6.65119C4.16102 6.65047 4.11529 6.67683 4.09014 6.71989C4.06499 6.76296 4.06444 6.81585 4.0887 6.85776C4.67597 7.87226 5.54159 8.72883 6.52574 9.29829C7.37262 9.78833 8.31871 10.0848 9.29213 10.1686C8.33167 10.2837 7.3867 10.5811 6.53985 11.0914L6.53488 11.0946C5.50947 11.7136 4.64208 12.5904 4.01988 13.6351C3.99463 13.6775 3.99335 13.7298 4.01653 13.7718C4.03972 13.8138 4.08375 13.8389 4.13162 13.8374C5.26763 13.8031 6.39552 13.484 7.4024 12.9103C8.32304 12.3859 9.09396 11.6247 9.704 10.7491C8.79537 12.7345 8.81009 15.0016 9.75405 16.9286C9.77586 16.9732 9.8206 17.0007 9.87001 17C9.91942 16.9993 9.96524 16.9705 9.98878 16.9253C11.0016 14.9811 11.0976 12.7222 10.2717 10.7626C10.8187 11.5698 11.5152 12.2694 12.3825 12.7712C13.4031 13.3618 14.6031 13.6321 15.778 13.6289ZM6.6041 11.2071C7.55147 10.6363 8.62702 10.3363 9.71064 10.265C9.76385 10.2615 9.81708 10.2585 9.87032 10.2561C9.84158 10.3029 9.81241 10.3493 9.7828 10.3955C9.15578 11.374 8.33618 12.226 7.34103 12.7929C6.39965 13.3292 5.35028 13.6388 4.28901 13.6959C4.23674 13.6987 4.18444 13.7009 4.13213 13.7025C4.15973 13.6561 4.18782 13.6101 4.2164 13.5645C4.82085 12.5986 5.64184 11.787 6.6041 11.2071ZM9.9893 10.0496C10.0157 10.0028 10.0416 9.95573 10.0671 9.90846C10.637 8.85281 10.991 7.68234 10.9899 6.49984C10.9889 5.36898 10.7064 4.25332 10.1912 3.27099C10.1673 3.22537 10.1429 3.18004 10.118 3.13501C10.0915 3.18089 10.0656 3.2271 10.0402 3.27361C9.46753 4.32163 9.15292 5.52673 9.13907 6.70242C9.12582 7.82652 9.41761 8.92654 9.91694 9.9105C9.9406 9.95712 9.96472 10.0035 9.9893 10.0496ZM7.3821 7.66346C8.303 8.19632 9.11821 8.98566 9.69125 9.92065C9.71902 9.96594 9.74621 10.0116 9.77282 10.0575C9.71978 10.0568 9.6668 10.0553 9.61387 10.0533C8.55185 10.0117 7.5132 9.71231 6.59373 9.18027C5.67303 8.64752 4.85764 7.85808 4.28457 6.92308C4.25681 6.87778 4.22962 6.83215 4.20301 6.78618C4.25605 6.78697 4.30903 6.7884 4.36196 6.79047C5.42396 6.83199 6.46243 7.1313 7.3821 7.66346ZM10.1903 10.3873C10.1628 10.3425 10.1358 10.2975 10.1092 10.2522C10.1616 10.2519 10.2141 10.2523 10.2666 10.2531C11.3749 10.2711 12.4815 10.5311 13.4381 11.0846C14.3932 11.6373 15.1369 12.4428 15.7006 13.3586C15.7282 13.4035 15.7553 13.4486 15.7821 13.4939C15.7295 13.4941 15.6769 13.4937 15.6243 13.4927C14.5196 13.4722 13.4036 13.2047 12.4505 12.6532C11.4984 12.1023 10.7544 11.3065 10.1903 10.3873ZM15.8679 6.61475C15.8144 6.61762 15.761 6.62113 15.7077 6.62528C14.6546 6.70723 13.6184 7.03811 12.6943 7.58975C11.7394 8.15991 10.9219 8.95755 10.3156 9.90839C10.286 9.95478 10.257 10.0015 10.2284 10.0487C10.2818 10.0458 10.3352 10.0423 10.3886 10.0381C11.4416 9.95617 12.4778 9.62529 13.4019 9.07365C14.3569 8.50349 15.1743 7.70585 15.7806 6.75501C15.8102 6.70862 15.8393 6.66186 15.8679 6.61475ZM9.98865 10.4648C9.96252 10.515 9.93702 10.5653 9.91213 10.6159C8.95692 12.5566 8.91803 14.7968 9.80183 16.716C9.8248 16.7659 9.84839 16.8156 9.8726 16.865C9.89872 16.8148 9.92422 16.7645 9.9491 16.7139C10.9044 14.7727 10.943 12.5328 10.0594 10.6138C10.0364 10.5639 10.0129 10.5142 9.98865 10.4648Z" fill="white"></path></g><defs><clipPath id="clip0_3637_24311"><rect width="20" height="20" fill="white"></rect></clipPath></defs></svg>